PathFileType	4	(X/Y/Z)	/Users/itak/Documents/Research/Walk-IL/dataset/trc/00449_00167.trc
DataRate	CameraRate	NumFrames	NumMarkers	Units	OrigDataRate	OrigDataStartFrame	OrigNumFrames
100.000000	100.000000	4	54	mm	100.000000	119	477
Frame#	Time	RPSI			LPSI			L3			STRN			T10			C7			CLAV			RBAK			LBAK			LSHO			LUPA			LAEL			LAOL			LWPS			LFRA			LIFD			LHPS			LHTS			RSHO			RUPA			RAEL			RAOL			RWTS			RWPS			RFRA			RIFD			RHTS			RHPS			RBHD			LFHD			RFHD			LBHD			LHIP			RHIP			RASI			LASI			LKNE			LTHI			LANK			LTIP			LTOE			LMT1			LMT5			LHEE			RKNE			RTHI			RANK			RTIP			RTOE			RMT1			RMT5			RHEE			LWTS			*53			
		X1	Y1	Z1	X2	Y2	Z2	X3	Y3	Z3	X4	Y4	Z4	X5	Y5	Z5	X6	Y6	Z6	X7	Y7	Z7	X8	Y8	Z8	X9	Y9	Z9	X10	Y10	Z10	X11	Y11	Z11	X12	Y12	Z12	X13	Y13	Z13	X14	Y14	Z14	X15	Y15	Z15	X16	Y16	Z16	X17	Y17	Z17	X18	Y18	Z18	X19	Y19	Z19	X20	Y20	Z20	X21	Y21	Z21	X22	Y22	Z22	X23	Y23	Z23	X24	Y24	Z24	X25	Y25	Z25	X26	Y26	Z26	X27	Y27	Z27	X28	Y28	Z28	X29	Y29	Z29	X30	Y30	Z30	X31	Y31	Z31	X32	Y32	Z32	X33	Y33	Z33	X34	Y34	Z34	X35	Y35	Z35	X36	Y36	Z36	X37	Y37	Z37	X38	Y38	Z38	X39	Y39	Z39	X40	Y40	Z40	X41	Y41	Z41	X42	Y42	Z42	X43	Y43	Z43	X44	Y44	Z44	X45	Y45	Z45	X46	Y46	Z46	X47	Y47	Z47	X48	Y48	Z48	X49	Y49	Z49	X50	Y50	Z50	X51	Y51	Z51	X52	Y52	Z52	X53	Y53	Z53	X54	Y54	Z54	

120	1.19	-1624.194091796875	967.8926391601562	-558.5830078125	-1553.020751953125	968.1564331054688	-680.484619140625	-1583.206787109375	1063.573608398438	-598.7607421875	-1333.132202148438	1254.415161132812	-479.9831848144531	-1595.765380859375	1188.709716796875	-608.1648559570312	-1534.211303710938	1454.588012695312	-560.39208984375	-1361.2802734375	1369.225708007812	-499.2746276855469	-1635.816284179688	1336.896606445312	-504.848876953125	-1521.628784179688	1407.59228515625	-665.2930297851562	-1392.23095703125	1429.575317382812	-695.730712890625	-1360.06884765625	1312.696655273438	-791.2154541015625	-1332.185546875	1096.803466796875	-820.277587890625	-1432.564575195312	1084.407104492188	-798.3592529296875	-1299.24560546875	880.37060546875	-818.7265625	-1309.609497070312	1009.506042480469	-821.3170776367188	-1266.65576171875	732.0805053710938	-742.4825439453125	-1287.365478515625	799.8975219726562	-813.5265502929688	-1254.59326171875	812.6619873046875	-749.2255249023438	-1542.980590820312	1422.082397460938	-385.9733581542969	-1592.733520507812	1359.737060546875	-326.5246887207031	-1609.372680664062	1071.819946289062	-275.5346984863281	-1645.268798828125	1055.94091796875	-331.1460571289062	-1498.568237304688	872.7896118164062	-286.2265319824219	-1580.115234375	855.4240112304688	-256.7496643066406	-1608.726928710938	1013.270385742188	-266.5442199707031	-1495.747802734375	713.8057861328125	-274.9631652832031	-1486.758178710938	773.675048828125	-266.5807189941406	-1560.68408203125	769.5120849609375	-251.2736053466797	-1495.31982421875	1646.519409179688	-441.4852905273438	-1306.607055664062	1661.797241210938	-528.309326171875	-1361.631958007812	1659.94921875	-408.74365234375	-1436.495239257812	1654.255737304688	-609.4082641601562	-1377.756713867188	866.2051391601562	-715.9627075195312	-1594.865478515625	864.8517456054688	-383.2328491210938	-1472.292602539062	903.4174194335938	-381.6906433105469	-1330.529541015625	902.1115112304688	-597.437255859375	-1371.5810546875	442.837646484375	-677.92333984375	-1343.702270507812	596.6814575195312	-685.4473266601562	-1474.435180664062	32.59478759765625	-747.5609130859375	-1389.277709960938	290.0532836914062	-704.9713745117188	-1314.445190429688	47.51193237304688	-571.8478393554688	-1392.762084960938	52.75012969970703	-584.4083862304688	-1338.968139648438	48.84853744506836	-683.972412109375	-1546.706176757812	30.71638488769531	-729.2275390625	-1559.137817382812	471.4380187988281	-385.1743774414062	-1563.698486328125	731.5850830078125	-347.4965209960938	-1628.62939453125	41.87925720214844	-406.1641235351562	-1576.706420898438	325.89208984375	-373.8143005371094	-1414.560546875	50.01494979858398	-355.4654846191406	-1455.395629882812	57.20082092285156	-413.7460327148438	-1519.318359375	47.05439758300781	-325.6969299316406	-1667.427978515625	31.71068954467773	-478.3526306152344	-1280.4794921875	898.8587646484375	-748.1321411132812	nan	nan	nan	
121	1.2	-1623.0185546875	967.9915161132812	-558.3009033203125	-1551.785888671875	968.2493286132812	-680.2138671875	-1581.905395507812	1063.714233398438	-598.4198608398438	-1331.57666015625	1254.168334960938	-479.4894714355469	-1594.29833984375	1188.839965820312	-607.8062133789062	-1532.41845703125	1454.630249023438	-559.8761596679688	-1359.569580078125	1368.9873046875	-498.7090454101562	-1634.149536132812	1337.01171875	-504.3752746582031	-1519.84228515625	1407.68017578125	-664.779052734375	-1390.356811523438	1429.479370117188	-695.1547241210938	-1358.346435546875	1312.638916015625	-790.7332763671875	-1330.803588867188	1096.7177734375	-819.9140625	-1431.2705078125	1084.530639648438	-798.1009521484375	-1298.245361328125	880.2735595703125	-818.6194458007812	-1308.36474609375	1009.346862792969	-821.0228881835938	-1265.852172851562	731.8660278320312	-742.3848266601562	-1286.46728515625	799.7568969726562	-813.4043579101562	-1253.759765625	812.4268188476562	-749.0970458984375	-1541.259765625	1422.05322265625	-385.4450378417969	-1591.124389648438	1359.757446289062	-326.0672607421875	-1608.220581054688	1071.79931640625	-275.2817077636719	-1644.108520507812	1056.041015625	-330.9418640136719	-1497.68701171875	872.6095581054688	-286.1239624023438	-1579.2646484375	855.3245239257812	-256.66650390625	-1607.650268554688	1013.252502441406	-266.355712890625	-1495.115478515625	713.6585693359375	-274.9749145507812	-1486.037475585938	773.4552001953125	-266.5460815429688	-1559.962890625	769.3844604492188	-251.2828216552734	-1493.521484375	1646.413452148438	-441.0541076660156	-1304.75390625	1661.628173828125	-527.7492065429688	-1359.83056640625	1659.784301757812	-408.218017578125	-1434.601684570312	1654.12548828125	-608.9208984375	-1376.68701171875	866.107666015625	-715.690185546875	-1593.920654296875	864.8560180664062	-383.0328063964844	-1471.302856445312	903.2399291992188	-381.4332885742188	-1329.518920898438	901.866943359375	-597.0997924804688	-1371.075927734375	442.7066345214844	-677.6409912109375	-1342.950927734375	596.5031127929688	-685.160888671875	-1474.40869140625	32.5626106262207	-747.5147094726562	-1388.959594726562	289.8432006835938	-704.7643432617188	-1314.557250976562	47.70717620849609	-571.748291015625	-1392.81591796875	52.73486709594727	-584.3920288085938	-1339.073608398438	48.97802734375	-683.9249267578125	-1546.717041015625	30.69141960144043	-729.2186279296875	-1558.664794921875	471.4048156738281	-384.9988098144531	-1562.890502929688	731.5192260742188	-347.2923583984375	-1628.617797851562	41.77130889892578	-406.1376342773438	-1576.407836914062	325.8554382324219	-373.7308349609375	-1414.62158203125	50.05411148071289	-355.3871765136719	-1455.413940429688	57.23844528198242	-413.7295227050781	-1519.335815429688	47.02498626708984	-325.6913146972656	-1667.446533203125	31.68416213989258	-478.3346252441406	-1279.533203125	898.5462646484375	-748.0142211914062	nan	nan	nan	
122	1.21	-1621.782836914062	968.0952758789062	-558.00390625	-1550.505493164062	968.3388671875	-679.9371337890625	-1580.54638671875	1063.845703125	-598.04345703125	-1329.962646484375	1253.908447265625	-478.9862670898438	-1592.7744140625	1188.954223632812	-607.4124145507812	-1530.561279296875	1454.6748046875	-559.3562622070312	-1357.790161132812	1368.744384765625	-498.1264953613281	-1632.429931640625	1337.142944335938	-503.8941650390625	-1517.987670898438	1407.763793945312	-664.2578125	-1388.411865234375	1429.37451171875	-694.5774536132812	-1356.564819335938	1312.580688476562	-790.2346801757812	-1329.373046875	1096.629272460938	-819.5497436523438	-1429.841674804688	1084.567138671875	-797.7694702148438	-1297.18115234375	880.1728515625	-818.4962158203125	-1307.048095703125	1009.185485839844	-820.7164306640625	-1264.997192382812	731.6753540039062	-742.2596435546875	-1285.486450195312	799.607666015625	-813.2584228515625	-1252.851440429688	812.1823120117188	-748.9617309570312	-1539.467895507812	1422.026123046875	-384.8944396972656	-1589.442504882812	1359.778930664062	-325.592529296875	-1607.0087890625	1071.775268554688	-275.0344848632812	-1642.8984375	1056.154541015625	-330.7410278320312	-1496.763916015625	872.4288330078125	-286.0023498535156	-1578.375854492188	855.2230224609375	-256.587646484375	-1606.53076171875	1013.236206054688	-266.1519775390625	-1494.44970703125	713.5100708007812	-274.9840393066406	-1485.27099609375	773.2294311523438	-266.5325317382812	-1559.213134765625	769.2492065429688	-251.2928314208984	-1491.635498046875	1646.304809570312	-440.5850219726562	-1302.814575195312	1661.439697265625	-527.1759643554688	-1357.937866210938	1659.61572265625	-407.693115234375	-1432.611694335938	1653.979858398438	-608.4149780273438	-1375.579711914062	865.9932861328125	-715.3997192382812	-1592.909545898438	864.8505249023438	-382.819580078125	-1470.251342773438	903.0509033203125	-381.1856384277344	-1328.45166015625	901.6046142578125	-596.7772216796875	-1370.53076171875	442.5831604003906	-677.3509521484375	-1342.168701171875	596.32666015625	-684.854736328125	-1474.377563476562	32.53330612182617	-747.4478759765625	-1388.670654296875	289.6209716796875	-704.5728759765625	-1314.669799804688	47.92000579833984	-571.663818359375	-1392.870361328125	52.71050643920898	-584.3690185546875	-1339.1943359375	49.11962509155273	-683.86962890625	-1546.733520507812	30.6612548828125	-729.2076416015625	-1558.164916992188	471.3699951171875	-384.8215942382812	-1562.024780273438	731.4559936523438	-347.1024169921875	-1628.61865234375	41.65200805664062	-406.1193237304688	-1576.099365234375	325.8250732421875	-373.6466369628906	-1414.686889648438	50.09599685668945	-355.2985534667969	-1455.434814453125	57.27996444702148	-413.7100219726562	-1519.35546875	46.99189758300781	-325.683837890625	-1667.465454101562	31.65275573730469	-478.3136596679688	-1278.55029296875	898.2384033203125	-747.8860473632812	nan	nan	nan	
123	1.22	-1620.49755859375	968.216796875	-557.7035522460938	-1549.180419921875	968.42333984375	-679.6533203125	-1579.127563476562	1063.964965820312	-597.6372680664062	-1328.286010742188	1253.627563476562	-478.4779052734375	-1591.194580078125	1189.05908203125	-606.9848022460938	-1528.629150390625	1454.714965820312	-558.8245239257812	-1355.940307617188	1368.492431640625	-497.5262756347656	-1630.654174804688	1337.293701171875	-503.4093322753906	-1516.061279296875	1407.835693359375	-663.7238159179688	-1386.40478515625	1429.267944335938	-693.9974975585938	-1354.730346679688	1312.521606445312	-789.7193603515625	-1327.897338867188	1096.544677734375	-819.1921997070312	-1428.294189453125	1084.533081054688	-797.3748779296875	-1296.05419921875	880.064697265625	-818.35498046875	-1305.660766601562	1009.02783203125	-820.4043579101562	-1264.090209960938	731.490234375	-742.1168212890625	-1284.43115234375	799.447509765625	-813.0979614257812	-1251.87353515625	811.9229125976562	-748.8273315429688	-1537.598388671875	1421.998901367188	-384.3216247558594	-1587.685791015625	1359.798095703125	-325.0997619628906	-1605.739135742188	1071.749389648438	-274.7902221679688	-1641.632446289062	1056.271850585938	-330.5410766601562	-1495.799194335938	872.250244140625	-285.8544311523438	-1577.450073242188	855.1235961914062	-256.507568359375	-1605.370239257812	1013.222595214844	-265.9286193847656	-1493.7451171875	713.353271484375	-274.9911499023438	-1484.457397460938	773.0018310546875	-266.5347290039062	-1558.434936523438	769.11181640625	-251.2952728271484	-1489.658813476562	1646.191650390625	-440.0704345703125	-1300.786376953125	1661.236450195312	-526.590576171875	-1355.956665039062	1659.453735351562	-407.1631774902344	-1430.52587890625	1653.814819335938	-607.8905029296875	-1374.413208007812	865.8555297851562	-715.091064453125	-1591.826293945312	864.83251953125	-382.591796875	-1469.137817382812	902.8504028320312	-380.9441223144531	-1327.309814453125	901.3345336914062	-596.4631958007812	-1369.94287109375	442.4566955566406	-677.0581665039062	-1341.353881835938	596.140625	-684.5321044921875	-1474.347412109375	32.51831436157227	-747.3590087890625	-1388.389038085938	289.392333984375	-704.3759155273438	-1314.780883789062	48.15144729614258	-571.6012573242188	-1392.927612304688	52.67785263061523	-584.3363647460938	-1339.329711914062	49.26910400390625	-683.80810546875	-1546.760498046875	30.62793159484863	-729.1963500976562	-1557.637573242188	471.331787109375	-384.6522827148438	-1561.1083984375	731.3972778320312	-346.9205627441406	-1628.638916015625	41.53366470336914	-406.1098937988281	-1575.778930664062	325.8003234863281	-373.5625610351562	-1414.753784179688	50.13880157470703	-355.2025146484375	-1455.457763671875	57.32510375976562	-413.6889343261719	-1519.376342773438	46.95507431030273	-325.6752319335938	-1667.486206054688	31.61654663085938	-478.2901611328125	-1277.501220703125	897.9561767578125	-747.7315673828125	nan	nan	nan	
